<svg width="154" height="42" viewBox="0 0 154 42" fill="none" xmlns="http://www.w3.org/2000/svg">
<path d="M9.14985 20.1659C9.14985 13.6299 14.4222 8.3576 20.9581 8.31402L22.0474 3.56457C21.6989 3.521 21.3503 3.521 21.0017 3.521C11.8514 3.521 4.40039 10.972 4.40039 20.1223C4.40039 24.1746 5.8383 27.8783 8.27839 30.7541L11.5464 27.1811C10.0649 25.3075 9.14985 22.8674 9.14985 20.1659Z" fill="url(#paint0_linear_183_1894)"/>
<path d="M28.9762 28.9241C26.8847 30.8413 24.0961 32.0178 21.0024 32.0178C17.6908 32.0178 14.6843 30.6235 12.5057 28.4448L9.28125 31.9742C12.2878 34.9808 16.4272 36.8108 21.0024 36.8108C25.4468 36.8108 29.4991 35.0679 32.4621 32.1921L28.9762 28.9241Z" fill="url(#paint1_linear_183_1894)"/>
<path d="M23.5731 3.78247L22.5273 8.44478C25.011 8.74979 27.2332 9.83912 28.9761 11.4513L32.8106 8.53193C30.3705 6.04827 27.1461 4.34892 23.5731 3.78247Z" fill="url(#paint2_linear_183_1894)"/>
<path d="M16.6887 11.3207C13.3771 12.9329 11.1113 16.3316 11.1113 20.2531C11.1113 24.1747 13.3771 27.5734 16.6887 29.1856" stroke="url(#paint3_linear_183_1894)" stroke-miterlimit="10"/>
<path d="M16.689 13.5428C17.9163 13.5428 18.9112 12.5479 18.9112 11.3206C18.9112 10.0933 17.9163 9.09839 16.689 9.09839C15.4617 9.09839 14.4668 10.0933 14.4668 11.3206C14.4668 12.5479 15.4617 13.5428 16.689 13.5428Z" fill="url(#paint4_radial_183_1894)"/>
<path d="M15.6426 11.3207C15.6426 11.8871 16.1219 12.3664 16.6883 12.3664C17.2548 12.3664 17.7341 11.8871 17.7341 11.3207C17.7341 10.7542 17.2548 10.2749 16.6883 10.2749C16.0783 10.2749 15.6426 10.7542 15.6426 11.3207Z" fill="url(#paint5_linear_183_1894)"/>
<path d="M16.689 30.8413C17.9163 30.8413 18.9112 29.8464 18.9112 28.6191C18.9112 27.3918 17.9163 26.3969 16.689 26.3969C15.4617 26.3969 14.4668 27.3918 14.4668 28.6191C14.4668 29.8464 15.4617 30.8413 16.689 30.8413Z" fill="url(#paint6_radial_183_1894)"/>
<path d="M15.6426 28.6191C15.6426 29.1856 16.1219 29.6649 16.6883 29.6649C17.2548 29.6649 17.7341 29.1856 17.7341 28.6191C17.7341 28.0527 17.2548 27.5734 16.6883 27.5734C16.0783 27.5734 15.6426 28.0527 15.6426 28.6191Z" fill="url(#paint7_linear_183_1894)"/>
<path d="M32.9409 34.7194C29.673 37.4209 25.5335 38.9895 21.002 38.9895" stroke="url(#paint8_linear_183_1894)" stroke-miterlimit="10"/>
<path d="M7.4082 7.26835C10.8069 3.65179 15.6435 1.42957 21.003 1.42957C25.5346 1.42957 29.7176 3.04177 32.942 5.69972" stroke="url(#paint9_linear_183_1894)" stroke-miterlimit="10"/>
<path d="M2.22266 20.2096C2.22266 16.3752 3.39913 12.8022 5.35991 9.79565" stroke="url(#paint10_linear_183_1894)" stroke-miterlimit="10"/>
<path d="M17.69 38.728C9.84686 37.3337 3.70307 31.1028 2.43945 23.2161" stroke="url(#paint11_linear_183_1894)" stroke-miterlimit="10"/>
<path d="M32.941 37.0287C34.1683 37.0287 35.1632 36.0337 35.1632 34.8065C35.1632 33.5792 34.1683 32.5842 32.941 32.5842C31.7137 32.5842 30.7188 33.5792 30.7188 34.8065C30.7188 36.0337 31.7137 37.0287 32.941 37.0287Z" fill="url(#paint12_radial_183_1894)"/>
<path d="M32.9403 35.8522C33.5178 35.8522 33.986 35.384 33.986 34.8065C33.986 34.2289 33.5178 33.7607 32.9403 33.7607C32.3627 33.7607 31.8945 34.2289 31.8945 34.8065C31.8945 35.384 32.3627 35.8522 32.9403 35.8522Z" fill="url(#paint13_linear_183_1894)"/>
<path d="M21.525 41.4296C22.7523 41.4296 23.7472 40.4346 23.7472 39.2073C23.7472 37.98 22.7523 36.9851 21.525 36.9851C20.2977 36.9851 19.3027 37.98 19.3027 39.2073C19.3027 40.4346 20.2977 41.4296 21.525 41.4296Z" fill="url(#paint14_radial_183_1894)"/>
<path d="M21.5243 40.2531C22.1018 40.2531 22.57 39.7849 22.57 39.2074C22.57 38.6298 22.1018 38.1616 21.5243 38.1616C20.9467 38.1616 20.4785 38.6298 20.4785 39.2074C20.4785 39.7849 20.9467 40.2531 21.5243 40.2531Z" fill="url(#paint15_linear_183_1894)"/>
<path d="M17.3863 40.9503C18.6136 40.9503 19.6085 39.9554 19.6085 38.7281C19.6085 37.5008 18.6136 36.5059 17.3863 36.5059C16.159 36.5059 15.1641 37.5008 15.1641 38.7281C15.1641 39.9554 16.159 40.9503 17.3863 40.9503Z" fill="url(#paint16_radial_183_1894)"/>
<path d="M17.3856 39.7738C17.9631 39.7738 18.4313 39.3056 18.4313 38.728C18.4313 38.1505 17.9631 37.6823 17.3856 37.6823C16.808 37.6823 16.3398 38.1505 16.3398 38.728C16.3398 39.3056 16.808 39.7738 17.3856 39.7738Z" fill="url(#paint17_linear_183_1894)"/>
<path d="M2.6148 26.0483C3.8421 26.0483 4.83702 25.0534 4.83702 23.8261C4.83702 22.5988 3.8421 21.6039 2.6148 21.6039C1.3875 21.6039 0.392578 22.5988 0.392578 23.8261C0.392578 25.0534 1.3875 26.0483 2.6148 26.0483Z" fill="url(#paint18_radial_183_1894)"/>
<path d="M2.61411 24.8718C3.19166 24.8718 3.65986 24.4036 3.65986 23.826C3.65986 23.2485 3.19166 22.7803 2.61411 22.7803C2.03656 22.7803 1.56836 23.2485 1.56836 23.826C1.56836 24.4036 2.03656 24.8718 2.61411 24.8718Z" fill="url(#paint19_linear_183_1894)"/>
<path d="M2.22222 21.9088C3.44952 21.9088 4.44444 20.9139 4.44444 19.6866C4.44444 18.4593 3.44952 17.4644 2.22222 17.4644C0.994923 17.4644 0 18.4593 0 19.6866C0 20.9139 0.994923 21.9088 2.22222 21.9088Z" fill="url(#paint20_radial_183_1894)"/>
<path d="M2.22153 20.7324C2.79909 20.7324 3.26728 20.2642 3.26728 19.6866C3.26728 19.1091 2.79909 18.6409 2.22153 18.6409C1.64398 18.6409 1.17578 19.1091 1.17578 19.6866C1.17578 20.2642 1.64398 20.7324 2.22153 20.7324Z" fill="url(#paint21_linear_183_1894)"/>
<path d="M5.18511 12.4972C6.41241 12.4972 7.40733 11.5023 7.40733 10.275C7.40733 9.04766 6.41241 8.05273 5.18511 8.05273C3.95781 8.05273 2.96289 9.04766 2.96289 10.275C2.96289 11.5023 3.95781 12.4972 5.18511 12.4972Z" fill="url(#paint22_radial_183_1894)"/>
<path d="M5.18442 11.3206C5.76198 11.3206 6.23018 10.8524 6.23018 10.2749C6.23018 9.69732 5.76198 9.22913 5.18442 9.22913C4.60687 9.22913 4.13867 9.69732 4.13867 10.2749C4.13867 10.8524 4.60687 11.3206 5.18442 11.3206Z" fill="url(#paint23_linear_183_1894)"/>
<path d="M5.5332 7.00689C5.5332 8.22693 6.53538 9.22911 7.75542 9.22911C8.97547 9.22911 9.97765 8.22693 9.97765 7.00689C9.97765 5.78685 8.97547 4.78467 7.75542 4.78467C6.49181 4.82824 5.5332 5.78685 5.5332 7.00689Z" fill="url(#paint24_radial_183_1894)"/>
<path d="M6.66602 7.00693C6.66602 7.57338 7.14532 8.05269 7.71177 8.05269C8.27822 8.05269 8.75752 7.57338 8.75752 7.00693C8.75752 6.44048 8.27822 5.96118 7.71177 5.96118C7.14532 6.00475 6.66602 6.44048 6.66602 7.00693Z" fill="url(#paint25_linear_183_1894)"/>
<path d="M33.1148 8.00914C34.3421 8.00914 35.337 7.01422 35.337 5.78692C35.337 4.55962 34.3421 3.5647 33.1148 3.5647C31.8875 3.5647 30.8926 4.55962 30.8926 5.78692C30.8926 7.01422 31.8875 8.00914 33.1148 8.00914Z" fill="url(#paint26_radial_183_1894)"/>
<path d="M33.1161 6.83259C33.6936 6.83259 34.1618 6.36439 34.1618 5.78684C34.1618 5.20929 33.6936 4.74109 33.1161 4.74109C32.5385 4.74109 32.0703 5.20929 32.0703 5.78684C32.0703 6.36439 32.5385 6.83259 33.1161 6.83259Z" fill="url(#paint27_linear_183_1894)"/>
<path d="M37.1299 20.9816C37.1299 19.3176 37.4899 17.8376 38.2099 16.5416C38.9299 15.2296 39.9299 14.2136 41.2099 13.4936C42.5059 12.7576 43.9699 12.3896 45.6019 12.3896C47.6019 12.3896 49.3139 12.9176 50.7379 13.9736C52.1619 15.0296 53.1139 16.4696 53.5939 18.2936H49.0819C48.7459 17.5896 48.2659 17.0536 47.6419 16.6856C47.0339 16.3176 46.3379 16.1336 45.5539 16.1336C44.2899 16.1336 43.2659 16.5736 42.4819 17.4536C41.6979 18.3336 41.3059 19.5096 41.3059 20.9816C41.3059 22.4536 41.6979 23.6296 42.4819 24.5096C43.2659 25.3896 44.2899 25.8296 45.5539 25.8296C46.3379 25.8296 47.0339 25.6456 47.6419 25.2776C48.2659 24.9096 48.7459 24.3736 49.0819 23.6696H53.5939C53.1139 25.4936 52.1619 26.9336 50.7379 27.9896C49.3139 29.0296 47.6019 29.5496 45.6019 29.5496C43.9699 29.5496 42.5059 29.1896 41.2099 28.4696C39.9299 27.7336 38.9299 26.7176 38.2099 25.4216C37.4899 24.1256 37.1299 22.6456 37.1299 20.9816ZM60.2111 18.2696C60.6911 17.5336 61.2911 16.9576 62.0111 16.5416C62.7311 16.1096 63.5311 15.8936 64.4111 15.8936V20.2376H63.2831C62.2591 20.2376 61.4911 20.4616 60.9791 20.9096C60.4671 21.3416 60.2111 22.1096 60.2111 23.2136V29.4296H56.1071V16.0376H60.2111V18.2696ZM80.0528 16.0376L71.6528 35.7896H67.2368L70.3088 28.9736L64.8608 16.0376H69.4448L72.5408 24.4136L75.6128 16.0376H80.0528ZM85.6408 17.9336C86.0408 17.3096 86.5928 16.8056 87.2968 16.4216C88.0008 16.0376 88.8248 15.8456 89.7688 15.8456C90.8728 15.8456 91.8728 16.1256 92.7688 16.6856C93.6648 17.2456 94.3688 18.0456 94.8808 19.0856C95.4088 20.1256 95.6728 21.3336 95.6728 22.7096C95.6728 24.0856 95.4088 25.3016 94.8808 26.3576C94.3688 27.3976 93.6648 28.2056 92.7688 28.7816C91.8728 29.3416 90.8728 29.6216 89.7688 29.6216C88.8408 29.6216 88.0168 29.4296 87.2968 29.0456C86.5928 28.6616 86.0408 28.1656 85.6408 27.5576V35.8136H81.5368V16.0376H85.6408V17.9336ZM91.4968 22.7096C91.4968 21.6856 91.2088 20.8856 90.6328 20.3096C90.0728 19.7176 89.3768 19.4216 88.5448 19.4216C87.7288 19.4216 87.0328 19.7176 86.4568 20.3096C85.8968 20.9016 85.6168 21.7096 85.6168 22.7336C85.6168 23.7576 85.8968 24.5656 86.4568 25.1576C87.0328 25.7496 87.7288 26.0456 88.5448 26.0456C89.3608 26.0456 90.0568 25.7496 90.6328 25.1576C91.2088 24.5496 91.4968 23.7336 91.4968 22.7096ZM105.29 25.9496V29.4296H103.202C101.714 29.4296 100.554 29.0696 99.7219 28.3496C98.8899 27.6136 98.4739 26.4216 98.4739 24.7736V19.4456H96.8419V16.0376H98.4739V12.7736H102.578V16.0376H105.266V19.4456H102.578V24.8216C102.578 25.2216 102.674 25.5096 102.866 25.6856C103.058 25.8616 103.378 25.9496 103.826 25.9496H105.29ZM113.672 29.6216C112.36 29.6216 111.176 29.3416 110.12 28.7816C109.08 28.2216 108.256 27.4216 107.648 26.3816C107.056 25.3416 106.76 24.1256 106.76 22.7336C106.76 21.3576 107.064 20.1496 107.672 19.1096C108.28 18.0536 109.112 17.2456 110.168 16.6856C111.224 16.1256 112.408 15.8456 113.72 15.8456C115.032 15.8456 116.216 16.1256 117.272 16.6856C118.328 17.2456 119.16 18.0536 119.768 19.1096C120.376 20.1496 120.68 21.3576 120.68 22.7336C120.68 24.1096 120.368 25.3256 119.744 26.3816C119.136 27.4216 118.296 28.2216 117.224 28.7816C116.168 29.3416 114.984 29.6216 113.672 29.6216ZM113.672 26.0696C114.456 26.0696 115.12 25.7816 115.664 25.2056C116.224 24.6296 116.504 23.8056 116.504 22.7336C116.504 21.6616 116.232 20.8376 115.688 20.2616C115.16 19.6856 114.504 19.3976 113.72 19.3976C112.92 19.3976 112.256 19.6856 111.728 20.2616C111.2 20.8216 110.936 21.6456 110.936 22.7336C110.936 23.8056 111.192 24.6296 111.704 25.2056C112.232 25.7816 112.888 26.0696 113.672 26.0696ZM136.081 16.0376V29.4296H131.977V27.6056C131.561 28.1976 130.993 28.6776 130.273 29.0456C129.569 29.3976 128.785 29.5736 127.921 29.5736C126.897 29.5736 125.993 29.3496 125.209 28.9016C124.425 28.4376 123.817 27.7736 123.385 26.9096C122.953 26.0456 122.737 25.0296 122.737 23.8616V16.0376H126.817V23.3096C126.817 24.2056 127.049 24.9016 127.513 25.3976C127.977 25.8936 128.601 26.1416 129.385 26.1416C130.185 26.1416 130.817 25.8936 131.281 25.3976C131.745 24.9016 131.977 24.2056 131.977 23.3096V16.0376H136.081ZM144.477 29.6216C143.309 29.6216 142.269 29.4216 141.357 29.0216C140.445 28.6216 139.725 28.0776 139.197 27.3896C138.669 26.6856 138.373 25.9016 138.309 25.0376H142.365C142.413 25.5016 142.629 25.8776 143.013 26.1656C143.397 26.4536 143.869 26.5976 144.429 26.5976C144.941 26.5976 145.333 26.5016 145.605 26.3096C145.893 26.1016 146.037 25.8376 146.037 25.5176C146.037 25.1336 145.837 24.8536 145.437 24.6776C145.037 24.4856 144.389 24.2776 143.493 24.0536C142.533 23.8296 141.733 23.5976 141.093 23.3576C140.453 23.1016 139.901 22.7096 139.437 22.1816C138.973 21.6376 138.741 20.9096 138.741 19.9976C138.741 19.2296 138.949 18.5336 139.365 17.9096C139.797 17.2696 140.421 16.7656 141.237 16.3976C142.069 16.0296 143.053 15.8456 144.189 15.8456C145.869 15.8456 147.189 16.2616 148.149 17.0936C149.125 17.9256 149.685 19.0296 149.829 20.4056H146.037C145.973 19.9416 145.765 19.5736 145.413 19.3016C145.077 19.0296 144.629 18.8936 144.069 18.8936C143.589 18.8936 143.221 18.9896 142.965 19.1816C142.709 19.3576 142.581 19.6056 142.581 19.9256C142.581 20.3096 142.781 20.5976 143.181 20.7896C143.597 20.9816 144.237 21.1736 145.101 21.3656C146.093 21.6216 146.901 21.8776 147.525 22.1336C148.149 22.3736 148.693 22.7736 149.157 23.3336C149.637 23.8776 149.885 24.6136 149.901 25.5416C149.901 26.3256 149.677 27.0296 149.229 27.6536C148.797 28.2616 148.165 28.7416 147.333 29.0936C146.517 29.4456 145.565 29.6216 144.477 29.6216Z" fill="white"/>
<defs>
<linearGradient id="paint0_linear_183_1894" x1="13.2267" y1="14.4988" x2="13.2267" y2="41.0893" gradientUnits="userSpaceOnUse">
<stop offset="0.0873016" stop-color="#EB5757"/>
<stop offset="0.9709" stop-color="#3C53D7"/>
</linearGradient>
<linearGradient id="paint1_linear_183_1894" x1="20.8754" y1="31.8172" x2="20.8754" y2="39.9858" gradientUnits="userSpaceOnUse">
<stop offset="0.0873016" stop-color="#EB5757"/>
<stop offset="0.9709" stop-color="#3C53D7"/>
</linearGradient>
<linearGradient id="paint2_linear_183_1894" x1="27.6706" y1="6.87381" x2="27.6706" y2="14.3617" gradientUnits="userSpaceOnUse">
<stop offset="0.0873016" stop-color="#EB5757"/>
<stop offset="0.9709" stop-color="#3C53D7"/>
</linearGradient>
<linearGradient id="paint3_linear_183_1894" x1="13.9009" y1="18.5221" x2="13.9009" y2="35.9655" gradientUnits="userSpaceOnUse">
<stop offset="0.0873016" stop-color="#EB5757"/>
<stop offset="0.9709" stop-color="#3C53D7"/>
</linearGradient>
<radialGradient id="paint4_radial_183_1894" cx="0" cy="0" r="1" gradientUnits="userSpaceOnUse" gradientTransform="translate(16.7088 11.3198) scale(2.01651)">
<stop stop-color="#7F00FE"/>
<stop offset="1" stop-color="#450528" stop-opacity="0"/>
</radialGradient>
<linearGradient id="paint5_linear_183_1894" x1="16.6887" y1="11.118" x2="16.6887" y2="13.1602" gradientUnits="userSpaceOnUse">
<stop offset="0.0873016" stop-color="#EB5757"/>
<stop offset="0.9709" stop-color="#3C53D7"/>
</linearGradient>
<radialGradient id="paint6_radial_183_1894" cx="0" cy="0" r="1" gradientUnits="userSpaceOnUse" gradientTransform="translate(16.7088 28.6182) scale(2.01651)">
<stop stop-color="#7F00FE"/>
<stop offset="1" stop-color="#450528" stop-opacity="0"/>
</radialGradient>
<linearGradient id="paint7_linear_183_1894" x1="16.6887" y1="28.4165" x2="16.6887" y2="30.4586" gradientUnits="userSpaceOnUse">
<stop offset="0.0873016" stop-color="#EB5757"/>
<stop offset="0.9709" stop-color="#3C53D7"/>
</linearGradient>
<linearGradient id="paint8_linear_183_1894" x1="26.9734" y1="36.4407" x2="26.9734" y2="40.6101" gradientUnits="userSpaceOnUse">
<stop offset="0.0873016" stop-color="#EB5757"/>
<stop offset="0.9709" stop-color="#3C53D7"/>
</linearGradient>
<linearGradient id="paint9_linear_183_1894" x1="20.1792" y1="3.7832" x2="20.1792" y2="9.48422" gradientUnits="userSpaceOnUse">
<stop offset="0.0873016" stop-color="#EB5757"/>
<stop offset="0.9709" stop-color="#3C53D7"/>
</linearGradient>
<linearGradient id="paint10_linear_183_1894" x1="3.79179" y1="13.9935" x2="3.79179" y2="24.1618" gradientUnits="userSpaceOnUse">
<stop offset="0.0873016" stop-color="#EB5757"/>
<stop offset="0.9709" stop-color="#3C53D7"/>
</linearGradient>
<linearGradient id="paint11_linear_183_1894" x1="10.0672" y1="29.469" x2="10.0672" y2="44.615" gradientUnits="userSpaceOnUse">
<stop offset="0.0873016" stop-color="#EB5757"/>
<stop offset="0.9709" stop-color="#3C53D7"/>
</linearGradient>
<radialGradient id="paint12_radial_183_1894" cx="0" cy="0" r="1" gradientUnits="userSpaceOnUse" gradientTransform="translate(32.9608 34.8056) scale(2.01651)">
<stop stop-color="#7F00FE"/>
<stop offset="1" stop-color="#450528" stop-opacity="0"/>
</radialGradient>
<linearGradient id="paint13_linear_183_1894" x1="32.9406" y1="34.6038" x2="32.9406" y2="36.646" gradientUnits="userSpaceOnUse">
<stop offset="0.0873016" stop-color="#EB5757"/>
<stop offset="0.9709" stop-color="#3C53D7"/>
</linearGradient>
<radialGradient id="paint14_radial_183_1894" cx="0" cy="0" r="1" gradientUnits="userSpaceOnUse" gradientTransform="translate(21.5448 39.2065) scale(2.01651)">
<stop stop-color="#7F00FE"/>
<stop offset="1" stop-color="#450528" stop-opacity="0"/>
</radialGradient>
<linearGradient id="paint15_linear_183_1894" x1="21.5246" y1="39.0047" x2="21.5246" y2="41.0469" gradientUnits="userSpaceOnUse">
<stop offset="0.0873016" stop-color="#EB5757"/>
<stop offset="0.9709" stop-color="#3C53D7"/>
</linearGradient>
<radialGradient id="paint16_radial_183_1894" cx="0" cy="0" r="1" gradientUnits="userSpaceOnUse" gradientTransform="translate(17.4061 38.7273) scale(2.01651)">
<stop stop-color="#7F00FE"/>
<stop offset="1" stop-color="#450528" stop-opacity="0"/>
</radialGradient>
<linearGradient id="paint17_linear_183_1894" x1="17.3859" y1="38.5253" x2="17.3859" y2="40.5675" gradientUnits="userSpaceOnUse">
<stop offset="0.0873016" stop-color="#EB5757"/>
<stop offset="0.9709" stop-color="#3C53D7"/>
</linearGradient>
<radialGradient id="paint18_radial_183_1894" cx="0" cy="0" r="1" gradientUnits="userSpaceOnUse" gradientTransform="translate(2.63463 23.8253) scale(2.01651)">
<stop stop-color="#7F00FE"/>
<stop offset="1" stop-color="#450528" stop-opacity="0"/>
</radialGradient>
<linearGradient id="paint19_linear_183_1894" x1="2.61445" y1="23.6234" x2="2.61445" y2="25.6655" gradientUnits="userSpaceOnUse">
<stop offset="0.0873016" stop-color="#EB5757"/>
<stop offset="0.9709" stop-color="#3C53D7"/>
</linearGradient>
<radialGradient id="paint20_radial_183_1894" cx="0" cy="0" r="1" gradientUnits="userSpaceOnUse" gradientTransform="translate(2.24205 19.6857) scale(2.01651)">
<stop stop-color="#7F00FE"/>
<stop offset="1" stop-color="#450528" stop-opacity="0"/>
</radialGradient>
<linearGradient id="paint21_linear_183_1894" x1="2.22187" y1="19.484" x2="2.22187" y2="21.5261" gradientUnits="userSpaceOnUse">
<stop offset="0.0873016" stop-color="#EB5757"/>
<stop offset="0.9709" stop-color="#3C53D7"/>
</linearGradient>
<radialGradient id="paint22_radial_183_1894" cx="0" cy="0" r="1" gradientUnits="userSpaceOnUse" gradientTransform="translate(5.20494 10.2741) scale(2.01651)">
<stop stop-color="#7F00FE"/>
<stop offset="1" stop-color="#450528" stop-opacity="0"/>
</radialGradient>
<linearGradient id="paint23_linear_183_1894" x1="5.18476" y1="10.0722" x2="5.18476" y2="12.1144" gradientUnits="userSpaceOnUse">
<stop offset="0.0873016" stop-color="#EB5757"/>
<stop offset="0.9709" stop-color="#3C53D7"/>
</linearGradient>
<radialGradient id="paint24_radial_183_1894" cx="0" cy="0" r="1" gradientUnits="userSpaceOnUse" gradientTransform="translate(7.77525 7.00606) scale(2.01651)">
<stop stop-color="#7F00FE"/>
<stop offset="1" stop-color="#450528" stop-opacity="0"/>
</radialGradient>
<linearGradient id="paint25_linear_183_1894" x1="7.7121" y1="6.80427" x2="7.7121" y2="8.84643" gradientUnits="userSpaceOnUse">
<stop offset="0.0873016" stop-color="#EB5757"/>
<stop offset="0.9709" stop-color="#3C53D7"/>
</linearGradient>
<radialGradient id="paint26_radial_183_1894" cx="0" cy="0" r="1" gradientUnits="userSpaceOnUse" gradientTransform="translate(33.1346 5.78609) scale(2.01651)">
<stop stop-color="#7F00FE"/>
<stop offset="1" stop-color="#450528" stop-opacity="0"/>
</radialGradient>
<linearGradient id="paint27_linear_183_1894" x1="33.1164" y1="5.58418" x2="33.1164" y2="7.62634" gradientUnits="userSpaceOnUse">
<stop offset="0.0873016" stop-color="#EB5757"/>
<stop offset="0.9709" stop-color="#3C53D7"/>
</linearGradient>
</defs>
</svg>
